<?xml version="1.0" encoding="UTF-8"?>
<svg width="480px" height="55px" viewBox="0 0 480 55" version="1.1" xmlns="http://www.w3.org/2000/svg" xmlns:xlink="http://www.w3.org/1999/xlink">
    <!-- Generator: Sketch 49 (51002) - http://www.bohemiancoding.com/sketch -->
    <title>Logotype@3x</title>
    <desc>Created with Sketch.</desc>
    <defs></defs>
    <g id="Page-1" stroke="none" stroke-width="1" fill="none" fill-rule="evenodd">
        <g id="Logotype" fill="#000000">
            <polygon id="Fill-4" points="190.583715 20.4721621 178.554751 0 168.712871 0 186.428255 30.0103285 186.428255 51.4130435 187.521797 51.4130435 194.957884 51.4130435 194.957884 29.7776903 212.673267 0 202.612679 0"></polygon>
            <path d="M384.078107,39.5919181 C381.218483,43.1268897 377.484048,45.4835375 372.426404,45.4835375 C363.196919,45.4835375 357.040265,37.9422647 356.822661,27.3373497 C356.822661,16.49677 362.974919,9.19116194 372.426404,8.95549716 C377.262048,8.95549716 381.000879,11.3121449 383.638503,14.375787 L384.515513,15.3184461 L390.010562,8.48416761 L389.351156,7.77717328 C384.955117,2.82821298 379.460067,0.235900441 372.426404,0.235900441 C358.361275,0.235900441 348.248186,11.7834745 348.248186,27.3373497 C348.248186,42.6555602 358.361275,54.2031342 372.426404,54.2031342 C379.242463,54.2031342 385.177117,51.6108217 389.573156,46.4261966 L390.232562,45.7192023 L384.737513,38.649259 L384.078107,39.5919181 Z" id="Fill-14"></path>
            <polygon id="Fill-11" points="291.848647 32.7578752 263.663828 0.236136106 262.737426 0.236136106 261.58231 0.236136106 261.58231 53.2607108 270.594521 53.2607108 270.594521 21.6816307 299.010363 54.2033699 299.472409 54.2033699 299.701122 54.2033699 300.856238 54.2033699 300.856238 1.17879521 291.848647 1.17879521"></polygon>
            <polygon id="Fill-9" points="469.939412 0 457.910448 20.4721621 446.100192 0 436.039604 0 453.754987 30.0103285 453.754987 51.4130435 454.84853 51.4130435 462.284617 51.4130435 462.284617 29.7776903 480 0"></polygon>
            <path d="M109.237041,22.2230671 C101.409435,20.3516115 99.6202679,19.1819518 99.6202679,15.4390406 C99.6202679,10.7604017 102.527665,8.88894612 107.224228,8.88894612 C111.697146,8.88894612 115.499126,10.7604017 118.182877,13.0997212 L119.077461,14.035449 L123.774024,6.31569471 L123.103087,5.61389887 C119.301107,2.33885161 113.709959,-0.000467863894 107.224228,-0.000467863894 C97.6074549,-0.000467863894 90.898078,6.08176276 90.898078,15.4390406 C90.898078,23.3927268 95.3709959,28.3052977 107.000582,30.8785491 C114.828189,32.7500047 117.064648,34.3875284 117.064648,37.8965076 C117.064648,42.3412146 113.709959,44.680534 108.342458,44.914466 C103.645894,44.914466 98.5020384,42.8090784 95.5946418,39.5340312 L94.7000582,38.5983034 L89.7798486,46.3180577 L90.4507863,47.0198535 C94.9237041,51.2306285 101.185789,53.569948 108.118812,53.569948 C118.630169,53.569948 125.786838,47.0198535 125.786838,37.4286437 C125.786838,29.4749575 120.642982,24.5623866 109.237041,22.2230671" id="Fill-1"></path>
            <polygon id="Fill-6" points="21.7706535 0.233698015 21.1426478 0.233698015 -0.000209335219 52.8683861 8.79186987 52.8683861 21.7706535 19.4161177 34.7494371 52.8683861 35.5867779 52.8683861 43.5415163 52.8683861 22.6079943 0.233698015"></polygon>
        </g>
    </g>
</svg>